<?xml version="1.0" encoding="utf-8"?>
<!-- Generator: Adobe Illustrator 23.0.1, SVG Export Plug-In . SVG Version: 6.00 Build 0)  -->
<svg version="1.1" id="Layer_1" xmlns="http://www.w3.org/2000/svg" xmlns:xlink="http://www.w3.org/1999/xlink" x="0px" y="0px"
	 viewBox="0 0 128 128" style="enable-background:new 0 0 128 128;" xml:space="preserve">
<style type="text/css">
	.st0{fill:#71C8F4;stroke:#595959;stroke-width:1.1611;stroke-miterlimit:10;}
</style>
<path class="st0" d="M100.6,108.5H28.7c-4.9,0-8.9-4-8.9-8.9V27.7c0-4.9,4-8.9,8.9-8.9h71.9c4.9,0,8.9,4,8.9,8.9v71.9
	C109.5,104.5,105.5,108.5,100.6,108.5z"/>
<g>
	<path d="M96.5,90.8c0,2.4,0,4.6,0,6.9c0,0.9-0.5,1.3-1.5,1.3c-8.3,0-16.5,0-24.8,0c-11.8,0-23.7,0-35.5,0c-1.4,0-1.7-0.3-1.7-1.7
		c0-2.2,0-4.3,0-6.6c-0.7,0-1.4,0-2.1,0c-1,0-1.4-0.4-1.4-1.4c0-14,0-27.9,0-41.9c0-1,0.4-1.4,1.5-1.4c5.5,0,10.9,0,16.4,0
		c0.3,0,0.5,0,0.9,0c0-0.3,0-0.6,0-0.9c0-5,0-10.1,0-15.1c0-1.2,0.4-1.6,1.6-1.6c9.9,0,19.8,0,29.7,0c1.3,0,1.6,0.4,1.6,1.6
		c0,5.1,0,10.1,0,15.2c0,0.2,0,0.5,0,0.8c0.3,0,0.6,0,0.8,0c5.4,0,10.9,0,16.3,0c1.3,0,1.7,0.3,1.7,1.7c0,13.8,0,27.5,0,41.3
		c0,1.4-0.3,1.7-1.7,1.7C97.8,90.8,97.1,90.8,96.5,90.8z M78.8,30.8c-9.4,0-18.8,0-28.1,0c0,14.6,0,29.1,0,43.6
		c2.1-0.4,3.8,0.2,4.9,1.9c1.4,2,1.1,4-0.3,5.9c0.8,0.7,1.5,1.4,2.2,1.9c1.1-1,2.2-2.1,3.3-3.1c-2.5-3.3-2.5-6.2-0.1-8.6
		c2-2,5.3-2.2,7.6-0.5c1.2,0.9,1.9,2,2.2,3.4c0.5,2.3-0.3,4.2-1.7,5.6c1.1,1.1,2.2,2.1,3.3,3.2c0.7-0.6,1.4-1.3,2.2-2
		c-1.3-1.7-1.7-3.6-0.6-5.5c1.1-2,3-2.7,5.2-2.3C78.8,59.9,78.8,45.4,78.8,30.8z M31.9,48.4c0,13.3,0,26.6,0,40c0.6,0,1.2,0,1.7,0
		c0.2,0,0.3-0.1,0.4-0.2c0.8-0.9,1.6-1.7,2.4-2.6c-1.6-2.4-1.5-4.7,0.3-6.5c1.7-1.6,4.2-1.8,6.1-0.4c0.9,0.7,1.5,1.6,1.8,2.7
		c0.4,1.6-0.1,3-1.1,4.3c0.5,0.4,0.9,0.7,1.4,1c0.5-2,1.7-3.5,3.4-4.5c-0.2-0.2-0.3-0.4-0.4-0.6c-1.1-1.6-1.1-3.6-0.1-5.3
		c0.2-0.3,0.4-0.8,0.4-1.2c0-8.7,0-17.4,0-26.2c0-0.2,0-0.4,0-0.6C42.8,48.4,37.4,48.4,31.9,48.4z M86,85.8c-1.7-2.6-1.6-5,0.3-6.7
		c1.7-1.6,4.3-1.7,6.1-0.3c0.9,0.7,1.5,1.6,1.7,2.8c0.3,1.6-0.2,2.9-1.1,4.1c0.5,0.4,1,0.7,1.4,1.1c0.4,0.4,0.7,0.9,1.1,1.3
		c0.1,0.1,0.2,0.2,0.4,0.2c0.6,0,1.2,0,1.8,0c0-13.4,0-26.7,0-39.9c-5.5,0-10.9,0-16.4,0c0,0.2,0,0.3,0,0.5c0,8.8,0,17.6,0,26.4
		c0,0.3,0.1,0.7,0.3,0.9c1.1,1.7,1.1,3.6,0,5.3c-0.1,0.2-0.3,0.4-0.4,0.6c1.8,1.1,2.9,2.6,3.4,4.5C85.1,86.4,85.5,86.1,86,85.8z
		 M70.6,96.6c0-0.2,0-0.5,0-0.7c0-2.5,0-5,0-7.5c0-3.3-2.6-5.9-5.8-5.9c-3.3,0-5.9,2.5-6,5.9c0,2.5,0,5.1,0,7.6c0,0.2,0,0.4,0.1,0.6
		C62.8,96.6,66.7,96.6,70.6,96.6z M47.1,96.6c3.2,0,6.3,0,9.4,0c0-2.9,0.1-5.8,0-8.6c-0.1-2.4-2.3-4.3-4.7-4.2
		c-2.4,0-4.5,1.9-4.6,4.3C47.1,90.9,47.1,93.7,47.1,96.6z M82.4,96.6c0-2.9,0-5.7,0-8.5c-0.1-2.5-2.2-4.4-4.7-4.5
		c-2.4,0-4.6,1.9-4.7,4.3c-0.1,2.8,0,5.6,0,8.4c0,0,0.1,0.1,0.1,0.1C76.2,96.6,79.2,96.6,82.4,96.6z M84.8,96.6c3.2,0,6.3,0,9.4,0
		c0-1.7,0.1-3.4,0-5c-0.1-2.4-2.2-4.3-4.6-4.3c-2.4,0-4.6,1.9-4.7,4.3C84.7,93.2,84.8,94.8,84.8,96.6z M35.4,96.6c3.2,0,6.3,0,9.4,0
		c0-1.6,0-3.2,0-4.7c0-2.5-2.1-4.5-4.5-4.6c-2.5-0.1-4.7,1.8-4.8,4.3C35.3,93.2,35.4,94.9,35.4,96.6z M64.7,73.1
		c-1.9,0-3.5,1.6-3.5,3.5c0,2,1.6,3.5,3.5,3.5c1.9,0,3.5-1.6,3.5-3.5C68.3,74.7,66.7,73.1,64.7,73.1z M42.4,82.5
		c0-1.3-1.1-2.4-2.4-2.3c-1.3,0-2.3,1.1-2.3,2.4c0,1.3,1,2.3,2.3,2.3C41.3,84.9,42.4,83.8,42.4,82.5z M89.5,80.2
		c-1.3,0-2.3,1-2.3,2.3c0,1.3,1,2.4,2.4,2.4c1.3,0,2.3-1,2.3-2.3C91.8,81.2,90.8,80.2,89.5,80.2z M54.2,79c0-1.3-1-2.4-2.3-2.4
		c-1.3,0-2.4,1.1-2.4,2.4c0,1.3,1.1,2.3,2.3,2.3C53.1,81.4,54.2,80.3,54.2,79z M77.6,76.6c-1.3,0-2.3,1.1-2.3,2.4
		c0,1.3,1.1,2.3,2.4,2.3c1.3,0,2.4-1.1,2.3-2.4C80,77.7,78.9,76.6,77.6,76.6z"/>
	<path d="M64.7,33.1c2.3,0,4.5,0,6.8,0c1.1,0,1.5,0.4,1.5,1.5c0,2.9,0,5.8,0,8.7c0,1.1-0.4,1.5-1.5,1.5c-4.5,0-9,0-13.4,0
		c-1.1,0-1.5-0.4-1.5-1.5c0-2.9,0-5.8,0-8.7c0-1.2,0.4-1.5,1.5-1.5C60.3,33.1,62.5,33.1,64.7,33.1z M58.9,42.5c3.9,0,7.8,0,11.7,0
		c0-2.4,0-4.7,0-6.9c-3.9,0-7.8,0-11.7,0C58.9,37.9,58.9,40.1,58.9,42.5z"/>
	<path d="M61.2,47.3c0,0.8,0,1.5,0,2.3c-0.7,0-1.5,0-2.3,0c0-0.7,0-1.5,0-2.3C59.7,47.3,60.4,47.3,61.2,47.3z"/>
	<path d="M75.3,59c-0.8,0-1.5,0-2.3,0c0-0.8,0-1.5,0-2.3c0.7,0,1.5,0,2.3,0C75.3,57.4,75.3,58.2,75.3,59z"/>
	<path d="M54.2,63.6c0-0.8,0-1.5,0-2.2c0.8,0,1.5,0,2.3,0c0,0.7,0,1.5,0,2.2C55.8,63.6,55,63.6,54.2,63.6z"/>
	<path d="M58.9,61.4c0.8,0,1.5,0,2.2,0c0,0.7,0,1.5,0,2.3c-0.7,0-1.5,0-2.2,0C58.9,62.9,58.9,62.2,58.9,61.4z"/>
	<path d="M65.9,63.7c-0.8,0-1.5,0-2.3,0c0-0.8,0-1.5,0-2.3c0.7,0,1.5,0,2.3,0C65.9,62.1,65.9,62.9,65.9,63.7z"/>
	<path d="M68.3,61.4c0.8,0,1.5,0,2.3,0c0,0.8,0,1.5,0,2.3c-0.7,0-1.5,0-2.3,0C68.3,62.9,68.3,62.2,68.3,61.4z"/>
	<path d="M73.1,61.4c0.8,0,1.5,0,2.3,0c0,0.8,0,1.5,0,2.3c-0.7,0-1.5,0-2.3,0C73.1,62.9,73.1,62.2,73.1,61.4z"/>
	<path d="M56.5,66.1c0,0.8,0,1.5,0,2.3c-0.8,0-1.5,0-2.3,0c0-0.7,0-1.5,0-2.3C55,66.1,55.7,66.1,56.5,66.1z"/>
	<path d="M61.2,66.1c0,0.8,0,1.5,0,2.3c-0.8,0-1.5,0-2.3,0c0-0.7,0-1.5,0-2.3C59.7,66.1,60.4,66.1,61.2,66.1z"/>
	<path d="M65.9,68.4c-0.8,0-1.5,0-2.2,0c0-0.8,0-1.5,0-2.3c0.7,0,1.5,0,2.2,0C65.9,66.9,65.9,67.6,65.9,68.4z"/>
	<path d="M68.3,68.4c0-0.8,0-1.5,0-2.3c0.8,0,1.5,0,2.3,0c0,0.8,0,1.5,0,2.3C69.8,68.4,69.1,68.4,68.3,68.4z"/>
	<path d="M75.3,66.1c0,0.8,0,1.5,0,2.3c-0.7,0-1.5,0-2.3,0c0-0.7,0-1.5,0-2.3C73.8,66.1,74.5,66.1,75.3,66.1z"/>
	<path d="M65.9,47.3c0,0.8,0,1.5,0,2.2c-0.8,0-1.5,0-2.3,0c0-0.7,0-1.5,0-2.2C64.4,47.3,65.2,47.3,65.9,47.3z"/>
	<path d="M70.6,49.6c-0.8,0-1.5,0-2.2,0c0-0.8,0-1.5,0-2.3c0.7,0,1.5,0,2.2,0C70.6,48,70.6,48.7,70.6,49.6z"/>
	<path d="M54.2,54.3c0-0.8,0-1.5,0-2.3c0.7,0,1.5,0,2.3,0c0,0.7,0,1.5,0,2.3C55.7,54.3,55,54.3,54.2,54.3z"/>
	<path d="M58.9,54.2c0-0.8,0-1.5,0-2.3c0.8,0,1.5,0,2.3,0c0,0.7,0,1.5,0,2.3C60.5,54.2,59.7,54.2,58.9,54.2z"/>
	<path d="M63.6,52c0.8,0,1.5,0,2.2,0c0,0.8,0,1.5,0,2.3c-0.7,0-1.5,0-2.2,0C63.6,53.5,63.6,52.8,63.6,52z"/>
	<path d="M68.3,58.9c0-0.8,0-1.5,0-2.3c0.8,0,1.5,0,2.3,0c0,0.7,0,1.5,0,2.3C69.9,58.9,69.1,58.9,68.3,58.9z"/>
	<path d="M70.6,52c0,0.8,0,1.5,0,2.3c-0.7,0-1.5,0-2.3,0c0-0.7,0-1.5,0-2.3C69.1,52,69.8,52,70.6,52z"/>
	<path d="M73,52c0.8,0,1.5,0,2.3,0c0,0.7,0,1.5,0,2.3c-0.7,0-1.5,0-2.3,0C73,53.5,73,52.8,73,52z"/>
	<path d="M56.5,56.7c0,0.8,0,1.5,0,2.3c-0.7,0-1.5,0-2.3,0c0-0.7,0-1.5,0-2.3C55,56.7,55.7,56.7,56.5,56.7z"/>
	<path d="M61.2,59c-0.8,0-1.5,0-2.3,0c0-0.7,0-1.5,0-2.3c0.7,0,1.5,0,2.3,0C61.2,57.4,61.2,58.2,61.2,59z"/>
	<path d="M63.6,59c0-0.8,0-1.5,0-2.3c0.7,0,1.5,0,2.3,0c0,0.7,0,1.5,0,2.3C65.2,59,64.4,59,63.6,59z"/>
	<path d="M42.4,74.2c0-6.2,0-12.5,0-18.7c0.7,0,1.5,0,2.3,0c0,6.2,0,12.5,0,18.7C44,74.2,43.3,74.2,42.4,74.2z"/>
	<path d="M37.7,74.3c-0.8,0-1.5,0-2.3,0c0-6.2,0-12.5,0-18.7c0.7,0,1.5,0,2.3,0C37.7,61.7,37.7,68,37.7,74.3z"/>
	<path d="M84.8,74.2c0-6.3,0-12.4,0-18.7c0.8,0,1.5,0,2.3,0c0,6.2,0,12.4,0,18.7C86.3,74.2,85.5,74.2,84.8,74.2z"/>
	<path d="M91.9,55.5c0.8,0,1.5,0,2.2,0c0,6.2,0,12.5,0,18.7c-0.7,0-1.5,0-2.2,0C91.9,68,91.9,61.8,91.9,55.5z"/>
</g>
</svg>
