<svg id="Layer_1" data-name="Layer 1" xmlns="http://www.w3.org/2000/svg" viewBox="0 0 60 54.1"><defs><style>.cls-1{fill:#0000000;}</style></defs><title>cart</title><path class="cls-1" d="M20.93,39.15" transform="translate(0)"/><circle class="cls-1" cx="25.08" cy="48.74" r="5.36"/><circle class="cls-1" cx="49.27" cy="48.74" r="5.36" transform="translate(-7.17 8.52) rotate(-9.22)"/><path class="cls-1" d="M56.27,12.45l-42.06.18-2-7.31a4,4,0,0,0-2.54-2.6L3.13.17A2.3,2.3,0,0,0,.28,1.1l-.07.13A1.81,1.81,0,0,0,1.3,3.78L6.69,5.84A2.63,2.63,0,0,1,8.33,7.61c2.4,9.13,7.89,29.55,8.58,31.42a7.77,7.77,0,0,0,1.57,2.84,3.35,3.35,0,0,0,2.11,1.07l35.09-.5a1.85,1.85,0,1,0-.06-3.69c-5.52.06-16.77.19-32.15.39a2.82,2.82,0,0,1-1.87-.56,2.48,2.48,0,0,1-.79-1.26l-.58-2.14L56.67,31h0A3.57,3.57,0,0,0,60,27.57V15.93A3.61,3.61,0,0,0,56.27,12.45Z"/></svg>