<svg class="planet" xmlns="http://www.w3.org/2000/svg" viewBox="0 0 60 60.51">
<path id="planet-2" data-name="planet" d="M0,31.89V28.11a3.41,3.41,0,0,0,.1-.46,27.31,27.31,0,0,1,1.76-8.09C6.07,8.93,13.74,2.44,24.89.21,26,0,27.2-.1,28.36-.26h3.28a2.42,2.42,0,0,0,.45.1,25.16,25.16,0,0,1,7,1.34c11.24,4,18.09,11.87,20.46,23.67.22,1.07.31,2.17.46,3.26v3.78a4.35,4.35,0,0,0-.1.52,27.86,27.86,0,0,1-2,8.69C53.55,51.38,46,57.66,35.05,59.79c-1.12.22-2.27.32-3.41.47H28.36a3.63,3.63,0,0,0-.45-.1c-1.6-.24-3.22-.39-4.79-.74A30.19,30.19,0,0,1,.47,35.27C.28,34.15.15,33,0,31.89ZM28.1,16.82l-10-.59A43.76,43.76,0,0,0,16,28.53H28.1ZM44,28.55a43.72,43.72,0,0,0-2.11-12.32l-10,.59V28.55ZM16,32.39a41.63,41.63,0,0,0,2.06,11.37l10-.59V32.39ZM31.9,43.17l10,.6A42.58,42.58,0,0,0,44,32.4H31.9ZM14.22,15.72c-1.74-.33-3.41-.63-5.07-1a.68.68,0,0,0-.84.37,25.91,25.91,0,0,0-3.94,9.25c-.29,1.37-.43,2.77-.65,4.19H12.2A49,49,0,0,1,14.22,15.72Zm31.55,0a49.41,49.41,0,0,1,2,12.83h8.37A26.14,26.14,0,0,0,52.25,16c-.83-1.33-.83-1.33-2.38-1l-.18,0ZM14.23,44.29a48,48,0,0,1-2-11.89H3.89c0,.15,0,.27,0,.39A26.52,26.52,0,0,0,7.71,44c.86,1.39.86,1.39,2.48,1.07h.11ZM56.14,32.38H47.76a49.2,49.2,0,0,1-2,11.91l.39.1c1.6.29,3.19.57,4.78.88a.51.51,0,0,0,.66-.27c.68-1.19,1.43-2.35,2-3.58A25.39,25.39,0,0,0,56.14,32.38ZM28.07,56.25V47l-8.58.45C21.5,51.34,23.76,54.77,28.07,56.25Zm3.84,0c4.33-1.47,6.57-4.91,8.6-8.82L31.91,47ZM19.49,12.57l8.6.45V3.74C23.77,5.23,21.52,8.65,19.49,12.57Zm12.4.45,8.54-.45c-1.79-4.17-5.32-8.16-8.54-8.72Zm9.19-7C41.71,7,42.34,8,42.9,9s1,2,1.59,3.1l4.06-.68A24.42,24.42,0,0,0,41.08,6Zm-25.57,6C16.06,11,16.54,10,17.1,9S18.29,7,18.89,6.08c-2.18.77-6.55,4-7.39,5.32ZM11.36,48.62a26.16,26.16,0,0,0,7.35,5.26c-1-1.88-2-3.76-3-5.63a.55.55,0,0,0-.43-.25C14,48.18,12.77,48.39,11.36,48.62Zm37.27,0c-1.42-.23-2.68-.45-3.94-.63-.12,0-.31.13-.38.25-1.05,1.82-2.08,3.64-3.11,5.46a1.8,1.8,0,0,0-.07.26A26.45,26.45,0,0,0,48.63,48.62Z" transform="translate(0 0.26)"/>
</svg>

