<?xml version="1.0" encoding="utf-8"?>
<!-- Generator: Adobe Illustrator 23.0.1, SVG Export Plug-In . SVG Version: 6.00 Build 0)  -->
<svg version="1.1" id="Layer_1" xmlns="http://www.w3.org/2000/svg" xmlns:xlink="http://www.w3.org/1999/xlink" x="0px" y="0px"
	 viewBox="0 0 128 128" style="enable-background:new 0 0 128 128;" xml:space="preserve">
<style type="text/css">
	.st0{fill:#00BBFC;}
	.st1{fill:#97C8EF;}
	.st2{fill:#FFFFFF;}
</style>
<g>
	<g id="Button_3_">
		<ellipse transform="matrix(0.9239 -0.3827 0.3827 0.9239 -19.62 29.3635)" class="st0" cx="64" cy="64" rx="44.5" ry="44.5"/>
		<path class="st1" d="M64,19.9c24.4,0,44.1,19.8,44.1,44.1S88.4,108.1,64,108.1S19.9,88.4,19.9,64S39.6,19.9,64,19.9 M64,19.1
			c-24.7,0-44.9,20.1-44.9,44.9s20.1,44.9,44.9,44.9s44.9-20.1,44.9-44.9S88.7,19.1,64,19.1L64,19.1z"/>
	</g>
	<path id="Path_3_" class="st2" d="M66.6,53h2v33c0,2.2,0.5,3.6,1.5,4.3c1,0.7,2.7,1.1,5.3,1.1v1.8H53.2v-1.8c3.2,0,5.3-0.4,6.2-1.1
		c0.9-0.7,1.4-2.2,1.4-4.4V61.9c0-2.4-0.4-4-1.3-4.7c-0.9-0.8-3-1.1-6.4-1.1v-1.8L66.6,53z M64.8,32.8c1.4,0,2.5,0.5,3.5,1.4
		c0.9,0.9,1.4,2,1.4,3.4c0,1.3-0.5,2.5-1.5,3.4c-1,1-2.1,1.4-3.5,1.4c-1.4,0-2.6-0.5-3.6-1.4c-1-1-1.5-2.1-1.5-3.4
		c0-1.3,0.5-2.5,1.5-3.4C62.2,33.2,63.4,32.8,64.8,32.8z"/>
</g>
</svg>
