<?xml version="1.0" encoding="utf-8"?>
<!-- Generator: Adobe Illustrator 23.0.1, SVG Export Plug-In . SVG Version: 6.00 Build 0)  -->
<svg version="1.1" id="Layer_1" xmlns="http://www.w3.org/2000/svg" xmlns:xlink="http://www.w3.org/1999/xlink" x="0px" y="0px"
	 viewBox="0 0 128 128" style="enable-background:new 0 0 128 128;" xml:space="preserve">
<style type="text/css">
	.st0{fill:none;stroke:#595959;stroke-width:1.1611;stroke-miterlimit:10;}
	.st1{fill:#9E9E9E;}
</style>
<path class="st0" d="M99.9,108.5H27.9c-4.9,0-8.9-4-8.9-8.9V27.7c0-4.9,4-8.9,8.9-8.9h71.9c4.9,0,8.9,4,8.9,8.9v71.9
	C108.7,104.5,104.7,108.5,99.9,108.5z"/>
<g>
	<path class="st1" d="M47.5,82.8c-0.5-7.4,2.1-13.4,8.1-17.9c-2.8-2.8-4-6-3.6-9.8c0.3-2.8,1.6-5.2,3.7-7.2c4.3-3.9,11-3.8,15.3,0.1
		c4.3,3.9,5.5,11.5,0.1,16.9c6,4.5,8.5,10.5,8,17.9C68.7,82.8,58.1,82.8,47.5,82.8z M75.9,79.4c-0.2-1.2-0.4-2.3-0.6-3.4
		c-1-3.8-3.5-6.5-6.4-8.8c-0.1-0.1-0.4-0.1-0.6,0c-3.3,1.2-6.5,1.2-9.8,0c-0.2-0.1-0.5-0.1-0.6,0c-2.1,1.7-4,3.5-5.3,6
		c-1,1.9-1.6,4-1.7,6.2C59.2,79.4,67.5,79.4,75.9,79.4z M71.4,56.4c0-4.4-3.6-8.1-8-8.1c-4.5,0-8.1,3.5-8.1,8.1c0,4.4,3.6,8,8,8
		C67.8,64.5,71.4,61,71.4,56.4z"/>
</g>
</svg>
