<svg id="Profile" xmlns="http://www.w3.org/2000/svg" viewBox="0 0 60 60"><defs><style>.cls-1{fill:#fff;}</style></defs><title>profile</title><path id="Path" d="M60.12,30A30,30,0,1,1,30.24,0,30,30,0,0,1,60.12,30ZM44,46.33c0-1.74,0-3.42,0-5.09a6.92,6.92,0,0,0-1.66-4.64,10.66,10.66,0,0,0-5.27-3.43,24.44,24.44,0,0,0-11.71-.58,12.69,12.69,0,0,0-6.46,2.92,7.31,7.31,0,0,0-2.7,5.93c.05,1.23,0,2.47,0,3.7v1.19ZM30.13,30.4A8.38,8.38,0,1,0,21.79,22,8.36,8.36,0,0,0,30.13,30.4Z" transform="translate(-0.12 0)"/><path id="Body" class="cls-1" d="M44,46.33H16.23V45.14c0-1.23,0-2.47,0-3.7a7.31,7.31,0,0,1,2.7-5.93,12.69,12.69,0,0,1,6.46-2.92,24.44,24.44,0,0,1,11.71.58,10.66,10.66,0,0,1,5.27,3.43A6.92,6.92,0,0,1,44,41.24C44,42.91,44,44.59,44,46.33Z" transform="translate(-0.12 0)"/><path id="Head" class="cls-1" d="M30.13,30.4a8.38,8.38,0,1,1,8.41-8.3A8.33,8.33,0,0,1,30.13,30.4Z" transform="translate(-0.12 0)"/></svg>