<svg id="profile" xmlns="http://www.w3.org/2000/svg" viewBox="0 0 60 60"><defs><style>.cls-1{fill:#fff;}</style></defs><title>profile</title><path id="profile-2" data-name="profile" d="M30,60a30,30,0,1,1,.24-60C46.76,0,60,13.55,60,30.39,60,46.61,46.43,60,30,60Zm0-13.1h0c4.59,0,9.18,0,13.77,0,2.63,0,3.87-1.87,2.83-4.29a13.22,13.22,0,0,0-8-7.57,27.74,27.74,0,0,0-13.47-.94c-5.23.78-9.44,3.07-11.65,8.21-1.18,2.75-.08,4.57,2.9,4.58C20.94,46.91,25.49,46.9,30,46.9ZM30,31.57A10.19,10.19,0,1,0,19.9,21.41,10.21,10.21,0,0,0,30,31.57Z" transform="translate(0 0)"/><path id="body" class="cls-1" d="M30,46.9c-4.55,0-9.1,0-13.65,0-3,0-4.08-1.83-2.9-4.58,2.21-5.14,6.42-7.43,11.65-8.21A27.74,27.74,0,0,1,38.61,35a13.22,13.22,0,0,1,8,7.57c1,2.42-.2,4.28-2.83,4.29-4.59,0-9.18,0-13.77,0Z" transform="translate(0 0)"/><path id="head" class="cls-1" d="M30,31.57A10.19,10.19,0,1,1,40.3,21.35,10.19,10.19,0,0,1,30,31.57Z" transform="translate(0 0)"/></svg>